<svg width="29" height="34" viewBox="0 0 29 34" fill="none" xmlns="http://www.w3.org/2000/svg">
<path d="M10.8215 33.192C7.3655 33.192 3.9095 33.064 0.4535 32.808L0.2135 28.104L3.7175 27.144V8.856C3.7175 8.024 3.6535 7.48 3.5255 7.224C3.3975 6.936 3.0615 6.68 2.5175 6.456L0.0215 5.064L0.3095 1.08C5.4935 0.407998 9.9415 0.0719976 13.6535 0.0719976C18.1975 0.0719976 21.5255 0.743998 23.6375 2.088C25.7495 3.432 26.8055 5.56 26.8055 8.472C26.8055 9.912 26.5815 11.192 26.1335 12.312C25.6855 13.4 24.9975 14.392 24.0695 15.288C27.2695 16.728 28.8695 19.064 28.8695 22.296C28.8695 25.176 28.0695 27.496 26.4695 29.256C24.8695 31.016 22.5175 32.168 19.4135 32.712C18.2615 33.032 15.3975 33.192 10.8215 33.192ZM17.8775 13.752C18.1975 12.92 18.3575 11.528 18.3575 9.576C18.3575 8.232 18.0375 7.24 17.3975 6.6C16.7895 5.96 15.8455 5.608 14.5655 5.544C13.7335 5.544 12.9015 5.576 12.0695 5.64V13.656C12.6135 13.624 13.3175 13.608 14.1815 13.608C15.4935 13.608 16.7255 13.656 17.8775 13.752ZM15.8615 27.24C17.6855 27.24 18.9815 27.08 19.7495 26.76C20.0695 25.48 20.2295 24.344 20.2295 23.352C20.2295 21.752 19.8135 20.616 18.9815 19.944C18.1495 19.272 16.7415 18.936 14.7575 18.936C14.3415 18.936 13.8135 18.968 13.1735 19.032L12.0695 19.08V26.904C13.1895 27.128 14.4535 27.24 15.8615 27.24Z" fill="currentColor"/>
</svg>
