<svg width="32" height="24" viewBox="0 0 32 24" fill="none" xmlns="http://www.w3.org/2000/svg">
<path d="M26.7165 2.62931C24.7921 1.74676 22.7294 1.09443 20.5723 0.7235C20.5531 0.71975 20.5332 0.722167 20.5154 0.730416C20.4976 0.738666 20.4828 0.752341 20.473 0.769547C20.2088 1.24152 19.9145 1.85676 19.7083 2.3428C17.4205 1.9952 15.0947 1.9952 12.807 2.3428C12.5772 1.80414 12.3182 1.2789 12.0309 0.769547C12.0212 0.752129 12.0065 0.738145 11.9887 0.729461C11.971 0.720776 11.951 0.717804 11.9316 0.720942C9.7758 1.09187 7.71308 1.7442 5.78747 2.62803C5.7709 2.6351 5.75686 2.64715 5.74722 2.66257C1.8331 8.51431 0.760233 14.2215 1.28723 19.8571C1.2887 19.8709 1.29291 19.8843 1.29961 19.8964C1.30632 19.9084 1.31537 19.919 1.32622 19.9274C3.61079 21.6189 6.15893 22.9074 8.86393 23.7391C8.88278 23.745 8.90295 23.745 8.9218 23.739C8.94065 23.7331 8.9573 23.7215 8.96958 23.7058C9.55166 22.9142 10.0675 22.0743 10.5116 21.195C10.5177 21.183 10.5213 21.1698 10.522 21.1562C10.5227 21.1427 10.5205 21.1291 10.5156 21.1165C10.5108 21.1039 10.5033 21.0925 10.4937 21.0831C10.4841 21.0737 10.4726 21.0665 10.46 21.062C9.64751 20.7508 8.86026 20.3753 8.1055 19.939C8.09194 19.9311 8.08051 19.9199 8.07224 19.9064C8.06398 19.893 8.05912 19.8776 8.05813 19.8618C8.05713 19.8459 8.06002 19.8301 8.06653 19.8156C8.07304 19.8012 8.08298 19.7886 8.09544 19.7791C8.25392 19.6601 8.41239 19.5361 8.56332 19.412C8.57691 19.4008 8.59327 19.3937 8.6106 19.3915C8.62792 19.3892 8.64551 19.3919 8.66143 19.3992C13.6006 21.6555 18.9498 21.6555 23.8312 19.3992C23.8471 19.3914 23.8649 19.3884 23.8825 19.3905C23.9 19.3925 23.9167 19.3995 23.9305 19.4107C24.0815 19.5361 24.2387 19.6601 24.3984 19.7791C24.411 19.7884 24.4211 19.8008 24.4278 19.8151C24.4345 19.8295 24.4377 19.8452 24.4369 19.8611C24.4362 19.8769 24.4316 19.8923 24.4235 19.9059C24.4155 19.9195 24.4043 19.9309 24.3909 19.939C23.6387 20.379 22.8564 20.7512 22.0351 21.0607C22.0225 21.0654 22.011 21.0727 22.0014 21.0822C21.9918 21.0918 21.9843 21.1033 21.9794 21.116C21.9745 21.1287 21.9724 21.1423 21.9731 21.1559C21.9738 21.1696 21.9774 21.1829 21.9835 21.195C22.4363 22.0737 22.9545 22.9102 23.5243 23.7045C23.5361 23.7208 23.5526 23.733 23.5715 23.7394C23.5904 23.7458 23.6108 23.7462 23.6299 23.7404C26.3396 22.9111 28.8919 21.6219 31.179 19.9274C31.1901 19.9195 31.1995 19.9092 31.2064 19.8973C31.2134 19.8854 31.2177 19.8721 31.2192 19.8584C31.8481 13.3428 30.1652 7.68164 26.7554 2.66513C26.7471 2.64883 26.7332 2.63612 26.7165 2.62931ZM11.2499 16.4254C9.76322 16.4254 8.53691 15.058 8.53691 13.3812C8.53691 11.703 9.73932 10.337 11.2499 10.337C12.7718 10.337 13.9867 11.7145 13.9629 13.3812C13.9629 15.0593 12.7604 16.4254 11.2499 16.4254ZM21.2805 16.4254C19.7925 16.4254 18.5675 15.058 18.5675 13.3812C18.5675 11.703 19.7686 10.337 21.2805 10.337C22.8023 10.337 24.0173 11.7145 23.9934 13.3812C23.9934 15.0593 22.8036 16.4254 21.2805 16.4254Z" fill="black" stroke="#5DE0FD" stroke-width="0.511628"/>
</svg>
