<svg width="60" height="70" viewBox="0 0 60 70" fill="none" xmlns="http://www.w3.org/2000/svg">
<g clip-path="url(#clip0_1925_7142)">
<path d="M19.9248 40.7031V40.8066L10.1301 46.5023L10.1499 34.9531L19.9248 40.7031Z" stroke="black" stroke-width="0.551811" stroke-miterlimit="10"/>
<path d="M19.9248 40.8066V52.3459L10.1301 46.6058V46.5023L19.9248 40.8066Z" fill="#4FC1E3" stroke="black" stroke-width="0.551811" stroke-miterlimit="10"/>
<path d="M10.1301 35.0222V46.5615L19.9248 40.8214V40.7179L10.1301 35.0222Z" fill="#45B5D3" stroke="black" stroke-width="0.551811" stroke-miterlimit="10"/>
<path d="M29.8724 58.1747L19.9248 52.3459V40.703L29.7441 46.4776L29.8379 46.4234L29.8724 58.1747Z" fill="#C0CC16" stroke="black" stroke-width="0.551811" stroke-miterlimit="10"/>
<path d="M49.6047 46.5812L49.6442 46.6058L49.6047 46.6305V46.5812Z" stroke="black" stroke-width="0.551811" stroke-miterlimit="10"/>
<path d="M39.7706 29.006L29.8033 34.9236L19.979 29.1342L10.1646 23.3498L0.241699 17.5012L10.1646 11.6724L20.1221 17.5012H20.1271L29.976 23.2709L39.7706 29.006Z" fill="#99D6F0" stroke="black" stroke-width="0.551811" stroke-miterlimit="10"/>
<path d="M39.746 5.98168L29.8329 11.8006L19.9248 6.00141L29.8033 0.143005L39.746 5.98168Z" fill="#E95C9D" stroke="black" stroke-width="0.551811" stroke-miterlimit="10"/>
<path d="M29.8032 34.9236L39.7706 29.006V29.0701L29.8032 34.9236Z" stroke="black" stroke-width="0.551811" stroke-miterlimit="10"/>
<path d="M39.8101 40.5995V40.6044L39.8446 52.3607L49.6047 46.6305L49.6442 46.6059L59.4092 40.8658V52.4149L40.5749 63.5005L39.8841 63.9098L29.9068 69.783L29.8723 58.1747L29.8378 46.4234L29.8032 34.9236L39.7706 29.0701L49.5356 23.33L59.4092 17.5308V29.1638L49.7083 34.8249L49.5702 34.9038L39.8101 40.5995Z" fill="#DDDE32" stroke="black" stroke-width="0.551811" stroke-miterlimit="10"/>
<path d="M39.8843 63.9098V63.9197L40.5751 63.5005" stroke="black" stroke-width="0.551811" stroke-miterlimit="10"/>
<path d="M59.4091 17.5308L49.5355 23.33L39.7705 29.0701V29.006L29.9758 23.2709L39.6915 17.5703L49.5898 11.7661L59.4091 17.5308Z" fill="#F9EC62" stroke="black" stroke-width="0.551811" stroke-miterlimit="10"/>
<path d="M29.976 23.2709L20.1271 17.5012L19.9248 6.00142L29.8329 11.8006L29.976 23.2709Z" fill="#D82B83" stroke="black" stroke-width="0.551811" stroke-miterlimit="10"/>
<path d="M39.7458 5.98167L39.6916 17.5703L29.9759 23.2709L29.8328 11.8006L39.7458 5.98167Z" fill="#EA4991" stroke="black" stroke-width="0.551811" stroke-miterlimit="10"/>
<path d="M49.6392 11.7365L49.5898 11.7661" stroke="black" stroke-width="0.551811" stroke-miterlimit="10"/>
<path d="M29.9069 69.783L10.2436 58.2388L10.1153 58.1648L0.241699 52.3656V17.5012L10.1646 23.3498L19.979 29.1342L29.8033 34.9236L29.8378 46.4234L29.7441 46.4776L19.9248 40.7031L10.1498 34.9532L10.1301 46.5023V46.6059L19.9248 52.3459L29.8724 58.1747L29.9069 69.783Z" fill="#76CBE9" stroke="black" stroke-width="0.551811" stroke-miterlimit="10"/>
<path d="M59.4092 40.8658L49.6442 46.6058L49.6047 46.5812V46.6305L39.8446 52.3607L39.8101 40.6044V40.5995L49.5702 34.9038L49.7083 34.8249L59.4092 40.8658Z" fill="#C0CC16" stroke="black" stroke-width="0.551811" stroke-miterlimit="10"/>
<path d="M19.984 40.7721L19.9248 40.8066" stroke="black" stroke-width="0.551811" stroke-miterlimit="10"/>
<path d="M10.13 46.5023L10.1152 46.5121" stroke="black" stroke-width="0.551811" stroke-miterlimit="10"/>
<path opacity="0.5" d="M39.7066 29.006L29.8379 34.8052L19.9692 29.0109V29.006L29.8379 23.2117L39.7066 29.006Z" fill="#F9EC62" stroke="black" stroke-width="0.551811" stroke-miterlimit="10"/>
<path opacity="0.5" d="M29.8379 34.8052V46.4234L19.9248 40.8066L19.9347 29.1293L29.8379 34.8052Z" fill="#F9EC62" stroke="black" stroke-width="0.551811" stroke-miterlimit="10"/>
<path opacity="0.5" d="M29.8724 58.0761L29.907 69.783L19.9939 63.9591L19.9248 52.3459L29.8724 58.0761Z" fill="#F9EC62" stroke="black" stroke-width="0.551811" stroke-miterlimit="10"/>
</g>
<defs>
<clipPath id="clip0_1925_7142">
<rect width="59.6561" height="70" fill="white"/>
</clipPath>
</defs>
</svg>
