<svg width="25" height="25" viewBox="0 0 25 25" fill="none" xmlns="http://www.w3.org/2000/svg">
<path d="M12.744 1.23257C6.38696 1.23257 1.23242 6.38711 1.23242 12.7442C1.23242 19.1013 6.38696 24.2558 12.744 24.2558C19.1011 24.2558 24.2557 19.1013 24.2557 12.7442C24.2557 6.38711 19.1011 1.23257 12.744 1.23257ZM19.3221 7.75155L18.2737 8.75624C18.1812 8.82562 18.1376 8.93868 18.1555 9.04917V16.4418C18.1376 16.5549 18.1812 16.6679 18.2737 16.7347L19.3016 17.7394V17.963H14.1419V17.7497L15.2031 16.7193C15.3085 16.614 15.3085 16.5831 15.3085 16.4264V10.4444L12.3535 17.9373H11.9552L8.51712 10.4444V15.4679C8.48629 15.6786 8.5608 15.8919 8.70984 16.0435L10.0923 17.7163V17.9398H6.16598V17.7163L7.5484 16.0435C7.62123 15.9683 7.67544 15.877 7.70667 15.7771C7.73791 15.6771 7.7453 15.5713 7.72827 15.4679V9.66073C7.74625 9.49885 7.68458 9.3421 7.56125 9.23161L6.333 7.75155V7.52799H10.1488L13.0935 13.9904L15.6862 7.53313H19.3221V7.75155Z" fill="black" stroke="#5DE0FD" stroke-width="0.511628"/>
</svg>
