<svg width="25" height="25" viewBox="0 0 25 25" fill="none" xmlns="http://www.w3.org/2000/svg">
<path d="M11.3051 13.7637C11.3051 13.1075 10.764 12.5665 10.1079 12.5665C9.45169 12.5665 8.91064 13.1075 8.91064 13.7637C8.91064 14.0812 9.03678 14.3857 9.2613 14.6102C9.48582 14.8348 9.79033 14.9609 10.1079 14.9609C10.4254 14.9609 10.7299 14.8348 10.9544 14.6102C11.1789 14.3857 11.3051 14.0812 11.3051 13.7637ZM15.1499 16.4919C14.6319 17.01 13.5268 17.1941 12.744 17.1941C11.9612 17.1941 10.8561 17.01 10.3381 16.4919C10.3101 16.462 10.2762 16.4381 10.2386 16.4217C10.201 16.4054 10.1604 16.3969 10.1194 16.3969C10.0783 16.3969 10.0378 16.4054 10.0001 16.4217C9.96251 16.4381 9.92865 16.462 9.90064 16.4919C9.87067 16.5199 9.84677 16.5538 9.83043 16.5914C9.81409 16.629 9.80565 16.6696 9.80565 16.7107C9.80565 16.7517 9.81409 16.7923 9.83043 16.8299C9.84677 16.8675 9.87067 16.9014 9.90064 16.9294C10.718 17.7467 12.2836 17.8158 12.744 17.8158C13.2045 17.8158 14.7701 17.7467 15.5874 16.9294C15.6174 16.9014 15.6413 16.8675 15.6576 16.8299C15.6739 16.7923 15.6824 16.7517 15.6824 16.7107C15.6824 16.6696 15.6739 16.629 15.6576 16.5914C15.6413 16.5538 15.6174 16.5199 15.5874 16.4919C15.4723 16.3768 15.2766 16.3768 15.1499 16.4919ZM15.3802 12.5665C14.724 12.5665 14.183 13.1075 14.183 13.7637C14.183 14.4198 14.724 14.9609 15.3802 14.9609C16.0363 14.9609 16.5774 14.4198 16.5774 13.7637C16.5774 13.1075 16.0479 12.5665 15.3802 12.5665Z" fill="black" stroke="#5DE0FD" stroke-width="0.511628"/>
<path d="M12.744 1.05484C6.38963 1.05484 1.23242 6.21205 1.23242 12.5665C1.23242 18.9209 6.38963 24.0781 12.744 24.0781C19.0985 24.0781 24.2557 18.9209 24.2557 12.5665C24.2557 6.21205 19.0985 1.05484 12.744 1.05484ZM19.4208 14.0975C19.4438 14.2587 19.4553 14.4313 19.4553 14.604C19.4553 17.1826 16.4508 19.2777 12.744 19.2777C9.0373 19.2777 6.03277 17.1826 6.03277 14.604C6.03277 14.4313 6.04428 14.2587 6.0673 14.0975C5.48021 13.8327 5.0773 13.2457 5.0773 12.5665C5.0756 12.2364 5.17147 11.9131 5.35288 11.6373C5.5343 11.3615 5.79316 11.1455 6.09695 11.0164C6.40075 10.8872 6.73593 10.8507 7.0604 10.9115C7.38487 10.9722 7.68416 11.1275 7.92068 11.3577C9.08335 10.5174 10.695 9.98786 12.4793 9.9303L13.3311 5.91275C13.3427 5.83216 13.3887 5.76309 13.4578 5.72856C13.5268 5.68251 13.6074 5.671 13.688 5.68251L16.4738 6.28112C16.5683 6.08954 16.7123 5.92673 16.8909 5.80958C17.0695 5.69242 17.2762 5.62519 17.4896 5.61485C17.703 5.60451 17.9152 5.65145 18.1043 5.75079C18.2934 5.85013 18.4525 5.99825 18.5651 6.1798C18.6776 6.36135 18.7395 6.5697 18.7444 6.78326C18.7493 6.99681 18.697 7.20778 18.5929 7.39429C18.4887 7.5808 18.3366 7.73604 18.1522 7.84393C17.9679 7.95182 17.758 8.00842 17.5444 8.00786C16.8997 8.00786 16.3817 7.50135 16.3472 6.86821L13.8492 6.33868L13.0894 9.9303C14.8507 9.98786 16.4278 10.5289 17.5789 11.3577C17.7554 11.1892 17.9666 11.0613 18.1976 10.9829C18.4287 10.9045 18.6741 10.8776 18.9167 10.904C19.1593 10.9303 19.3932 11.0094 19.602 11.1356C19.8108 11.2618 19.9896 11.4321 20.1257 11.6346C20.2618 11.8371 20.3521 12.0669 20.3901 12.308C20.4282 12.549 20.4131 12.7954 20.346 13.03C20.2788 13.2646 20.1612 13.4817 20.0014 13.6661C19.8416 13.8504 19.6434 13.9977 19.4208 14.0975Z" fill="black" stroke="#5DE0FD" stroke-width="0.511628"/>
</svg>
