<svg width="25" height="25" viewBox="0 0 25 25" fill="none" xmlns="http://www.w3.org/2000/svg">
<path d="M12.7443 1.23257C6.3872 1.23257 1.23267 6.38711 1.23267 12.7442C1.23267 19.1013 6.3872 24.2558 12.7443 24.2558C19.1014 24.2558 24.2559 19.1013 24.2559 12.7442C24.2559 6.38711 19.1014 1.23257 12.7443 1.23257ZM18.2766 9.90998C18.2843 10.0307 18.2843 10.1567 18.2843 10.28C18.2843 14.0521 15.4115 18.3972 10.1619 18.3972C8.54306 18.3972 7.04244 17.927 5.77822 17.1176C6.00948 17.1433 6.23046 17.1536 6.46686 17.1536C7.80303 17.1536 9.03128 16.7013 10.0103 15.9356C8.75634 15.9099 7.70282 15.0876 7.34308 13.957C7.78247 14.0213 8.17818 14.0213 8.63043 13.9056C7.98476 13.7745 7.40443 13.4238 6.98801 12.9132C6.57159 12.4027 6.34477 11.7637 6.34609 11.1048V11.0688C6.72381 11.2821 7.16835 11.4132 7.63344 11.4312C7.24246 11.1706 6.92182 10.8176 6.69995 10.4034C6.47807 9.98924 6.36182 9.52673 6.36151 9.05688C6.36151 8.52498 6.50026 8.03934 6.74951 7.61793C7.46617 8.50015 8.36045 9.2217 9.37422 9.73567C10.388 10.2496 11.4986 10.5445 12.6338 10.6012C12.2304 8.66117 13.6796 7.09117 15.4218 7.09117C16.244 7.09117 16.9841 7.43549 17.5057 7.99052C18.1506 7.86975 18.7673 7.62821 19.3172 7.30444C19.104 7.96482 18.6568 8.52241 18.0633 8.87444C18.6389 8.81277 19.1939 8.65346 19.7078 8.42991C19.3198 9.00035 18.8341 9.50656 18.2766 9.90998Z" fill="black" stroke="#5DE0FD" stroke-width="0.511628"/>
</svg>
