<svg width="34" height="25" viewBox="0 0 34 25" fill="none" xmlns="http://www.w3.org/2000/svg">
<path d="M17.1044 1.23257H17.2865C18.9688 1.23872 27.4925 1.30018 29.7907 1.91883C30.4855 2.10764 31.1186 2.47566 31.6268 2.98612C32.1349 3.49658 32.5004 4.1316 32.6865 4.82772C32.8932 5.60615 33.0385 6.63655 33.1368 7.69973L33.1572 7.91278L33.2022 8.44539L33.2186 8.65844C33.3516 10.5308 33.368 12.2843 33.3701 12.6674V12.821C33.368 13.2184 33.3496 15.0908 33.2022 17.041L33.1859 17.2561L33.1675 17.4691C33.0651 18.6408 32.9137 19.8044 32.6865 20.6607C32.5009 21.3571 32.1357 21.9924 31.6274 22.5029C31.1192 23.0135 30.4858 23.3813 29.7907 23.5696C27.4168 24.2087 18.3937 24.2538 17.1433 24.2558H16.8527C16.2203 24.2558 13.6049 24.2435 10.8625 24.1493L10.5146 24.137L10.3366 24.1288L9.98662 24.1145L9.63667 24.1001C7.36504 23.9998 5.20188 23.8379 4.20523 23.5675C3.51042 23.3795 2.87718 23.0119 2.36895 22.5018C1.86071 21.9916 1.49534 21.3567 1.30942 20.6607C1.08226 19.8065 0.930813 18.6408 0.828488 17.4691L0.812116 17.254L0.795744 17.041C0.694743 15.6529 0.638776 14.2619 0.62793 12.8702L0.62793 12.6182C0.632023 12.1778 0.648395 10.6557 0.758906 8.97596L0.773232 8.76496L0.779372 8.65844L0.795744 8.44539L0.840767 7.91278L0.861232 7.69973C0.959464 6.63655 1.10477 5.6041 1.31146 4.82772C1.49707 4.13132 1.86231 3.496 2.37056 2.98545C2.87881 2.4749 3.51222 2.10707 4.20728 1.91883C5.20393 1.65252 7.36709 1.48864 9.63872 1.38621L9.98662 1.37187L10.3386 1.35958L10.5146 1.35344L10.8646 1.3391C12.8123 1.27636 14.7607 1.24153 16.7094 1.23462H17.1044V1.23257ZM13.7256 7.8083V17.678L22.2329 12.7452L13.7256 7.8083Z" fill="black" stroke="#5DE0FD" stroke-width="0.511628"/>
</svg>
