<?xml version="1.0" standalone="no"?>
<!DOCTYPE svg PUBLIC "-//W3C//DTD SVG 20010904//EN"
 "http://www.w3.org/TR/2001/REC-SVG-20010904/DTD/svg10.dtd">
<svg version="1.0" xmlns="http://www.w3.org/2000/svg"
 width="125.000000pt" height="125.000000pt" viewBox="0 0 125.000000 125.000000"
 preserveAspectRatio="xMidYMid meet">
<metadata>
Created by potrace 1.14, written by Peter Selinger 2001-2017
</metadata>
<g transform="translate(0.000000,125.000000) scale(0.100000,-0.100000)"
fill="#000000" stroke="none">
<path d="M524 1189 l-82 -50 2 -99 2 -99 -45 27 c-25 14 -63 36 -83 49 -21 13
-39 23 -42 23 -2 0 -44 -24 -93 -52 l-88 -53 0 -310 0 -310 160 -94 c88 -52
207 -122 265 -155 l105 -62 145 86 c80 48 198 117 263 155 l117 70 0 105 0
105 -80 48 c-44 27 -80 50 -80 52 0 2 36 25 80 52 l80 48 0 105 0 105 -90 53
-89 53 -40 -26 c-22 -14 -44 -25 -48 -25 -5 0 -19 -9 -33 -20 -44 -34 -49 -27
-48 68 1 49 -2 93 -5 99 -6 10 -67 47 -146 90 -33 18 -36 17 -127 -38z"/>
</g>
</svg>
