<svg xmlns="http://www.w3.org/2000/svg" xmlns:xlink="http://www.w3.org/1999/xlink"><defs>
<clipPath id="clip0_1925_7142">
<rect width="59.6561" height="70" fill="white"/>
</clipPath>
</defs><symbol id="b-label" viewBox="0 0 29 34">
<path d="M10.8215 33.192C7.3655 33.192 3.9095 33.064 0.4535 32.808L0.2135 28.104L3.7175 27.144V8.856C3.7175 8.024 3.6535 7.48 3.5255 7.224C3.3975 6.936 3.0615 6.68 2.5175 6.456L0.0215 5.064L0.3095 1.08C5.4935 0.407998 9.9415 0.0719976 13.6535 0.0719976C18.1975 0.0719976 21.5255 0.743998 23.6375 2.088C25.7495 3.432 26.8055 5.56 26.8055 8.472C26.8055 9.912 26.5815 11.192 26.1335 12.312C25.6855 13.4 24.9975 14.392 24.0695 15.288C27.2695 16.728 28.8695 19.064 28.8695 22.296C28.8695 25.176 28.0695 27.496 26.4695 29.256C24.8695 31.016 22.5175 32.168 19.4135 32.712C18.2615 33.032 15.3975 33.192 10.8215 33.192ZM17.8775 13.752C18.1975 12.92 18.3575 11.528 18.3575 9.576C18.3575 8.232 18.0375 7.24 17.3975 6.6C16.7895 5.96 15.8455 5.608 14.5655 5.544C13.7335 5.544 12.9015 5.576 12.0695 5.64V13.656C12.6135 13.624 13.3175 13.608 14.1815 13.608C15.4935 13.608 16.7255 13.656 17.8775 13.752ZM15.8615 27.24C17.6855 27.24 18.9815 27.08 19.7495 26.76C20.0695 25.48 20.2295 24.344 20.2295 23.352C20.2295 21.752 19.8135 20.616 18.9815 19.944C18.1495 19.272 16.7415 18.936 14.7575 18.936C14.3415 18.936 13.8135 18.968 13.1735 19.032L12.0695 19.08V26.904C13.1895 27.128 14.4535 27.24 15.8615 27.24Z" fill="currentColor"/>
</symbol><symbol id="discord" viewBox="0 0 32 24">
<path d="M26.7165 2.62931C24.7921 1.74676 22.7294 1.09443 20.5723 0.7235C20.5531 0.71975 20.5332 0.722167 20.5154 0.730416C20.4976 0.738666 20.4828 0.752341 20.473 0.769547C20.2088 1.24152 19.9145 1.85676 19.7083 2.3428C17.4205 1.9952 15.0947 1.9952 12.807 2.3428C12.5772 1.80414 12.3182 1.2789 12.0309 0.769547C12.0212 0.752129 12.0065 0.738145 11.9887 0.729461C11.971 0.720776 11.951 0.717804 11.9316 0.720942C9.7758 1.09187 7.71308 1.7442 5.78747 2.62803C5.7709 2.6351 5.75686 2.64715 5.74722 2.66257C1.8331 8.51431 0.760233 14.2215 1.28723 19.8571C1.2887 19.8709 1.29291 19.8843 1.29961 19.8964C1.30632 19.9084 1.31537 19.919 1.32622 19.9274C3.61079 21.6189 6.15893 22.9074 8.86393 23.7391C8.88278 23.745 8.90295 23.745 8.9218 23.739C8.94065 23.7331 8.9573 23.7215 8.96958 23.7058C9.55166 22.9142 10.0675 22.0743 10.5116 21.195C10.5177 21.183 10.5213 21.1698 10.522 21.1562C10.5227 21.1427 10.5205 21.1291 10.5156 21.1165C10.5108 21.1039 10.5033 21.0925 10.4937 21.0831C10.4841 21.0737 10.4726 21.0665 10.46 21.062C9.64751 20.7508 8.86026 20.3753 8.1055 19.939C8.09194 19.9311 8.08051 19.9199 8.07224 19.9064C8.06398 19.893 8.05912 19.8776 8.05813 19.8618C8.05713 19.8459 8.06002 19.8301 8.06653 19.8156C8.07304 19.8012 8.08298 19.7886 8.09544 19.7791C8.25392 19.6601 8.41239 19.5361 8.56332 19.412C8.57691 19.4008 8.59327 19.3937 8.6106 19.3915C8.62792 19.3892 8.64551 19.3919 8.66143 19.3992C13.6006 21.6555 18.9498 21.6555 23.8312 19.3992C23.8471 19.3914 23.8649 19.3884 23.8825 19.3905C23.9 19.3925 23.9167 19.3995 23.9305 19.4107C24.0815 19.5361 24.2387 19.6601 24.3984 19.7791C24.411 19.7884 24.4211 19.8008 24.4278 19.8151C24.4345 19.8295 24.4377 19.8452 24.4369 19.8611C24.4362 19.8769 24.4316 19.8923 24.4235 19.9059C24.4155 19.9195 24.4043 19.9309 24.3909 19.939C23.6387 20.379 22.8564 20.7512 22.0351 21.0607C22.0225 21.0654 22.011 21.0727 22.0014 21.0822C21.9918 21.0918 21.9843 21.1033 21.9794 21.116C21.9745 21.1287 21.9724 21.1423 21.9731 21.1559C21.9738 21.1696 21.9774 21.1829 21.9835 21.195C22.4363 22.0737 22.9545 22.9102 23.5243 23.7045C23.5361 23.7208 23.5526 23.733 23.5715 23.7394C23.5904 23.7458 23.6108 23.7462 23.6299 23.7404C26.3396 22.9111 28.8919 21.6219 31.179 19.9274C31.1901 19.9195 31.1995 19.9092 31.2064 19.8973C31.2134 19.8854 31.2177 19.8721 31.2192 19.8584C31.8481 13.3428 30.1652 7.68164 26.7554 2.66513C26.7471 2.64883 26.7332 2.63612 26.7165 2.62931ZM11.2499 16.4254C9.76322 16.4254 8.53691 15.058 8.53691 13.3812C8.53691 11.703 9.73932 10.337 11.2499 10.337C12.7718 10.337 13.9867 11.7145 13.9629 13.3812C13.9629 15.0593 12.7604 16.4254 11.2499 16.4254ZM21.2805 16.4254C19.7925 16.4254 18.5675 15.058 18.5675 13.3812C18.5675 11.703 19.7686 10.337 21.2805 10.337C22.8023 10.337 24.0173 11.7145 23.9934 13.3812C23.9934 15.0593 22.8036 16.4254 21.2805 16.4254Z" fill="black" stroke="#5DE0FD" stroke-width="0.511628"/>
</symbol><symbol id="fb" viewBox="0 0 25 25">
<path fill-rule="evenodd" clip-rule="evenodd" d="M0.744385 12.3201C0.744385 18.0433 4.90104 22.8024 10.3374 23.7675V15.4532H7.4595V12.2558H10.3374V9.69737C10.3374 6.81946 12.1917 5.22126 14.8145 5.22126C15.6452 5.22126 16.5412 5.34885 17.372 5.47644V8.41862H15.9014C14.4941 8.41862 14.1746 9.12179 14.1746 10.0178V12.2558H17.2444L16.7331 15.4532H14.1746V23.7675C19.611 22.8024 23.7676 18.0443 23.7676 12.3201C23.7676 5.95321 18.5874 0.744202 12.256 0.744202C5.92462 0.744202 0.744385 5.95321 0.744385 12.3201Z" fill="black" stroke="#5DE0FD" stroke-width="0.511628"/>
</symbol><symbol id="logo" viewBox="0 0 60 70">
<g clip-path="url(#clip0_1925_7142)">
<path d="M19.9248 40.7031V40.8066L10.1301 46.5023L10.1499 34.9531L19.9248 40.7031Z" stroke="black" stroke-width="0.551811" stroke-miterlimit="10"/>
<path d="M19.9248 40.8066V52.3459L10.1301 46.6058V46.5023L19.9248 40.8066Z" fill="#4FC1E3" stroke="black" stroke-width="0.551811" stroke-miterlimit="10"/>
<path d="M10.1301 35.0222V46.5615L19.9248 40.8214V40.7179L10.1301 35.0222Z" fill="#45B5D3" stroke="black" stroke-width="0.551811" stroke-miterlimit="10"/>
<path d="M29.8724 58.1747L19.9248 52.3459V40.703L29.7441 46.4776L29.8379 46.4234L29.8724 58.1747Z" fill="#C0CC16" stroke="black" stroke-width="0.551811" stroke-miterlimit="10"/>
<path d="M49.6047 46.5812L49.6442 46.6058L49.6047 46.6305V46.5812Z" stroke="black" stroke-width="0.551811" stroke-miterlimit="10"/>
<path d="M39.7706 29.006L29.8033 34.9236L19.979 29.1342L10.1646 23.3498L0.241699 17.5012L10.1646 11.6724L20.1221 17.5012H20.1271L29.976 23.2709L39.7706 29.006Z" fill="#99D6F0" stroke="black" stroke-width="0.551811" stroke-miterlimit="10"/>
<path d="M39.746 5.98168L29.8329 11.8006L19.9248 6.00141L29.8033 0.143005L39.746 5.98168Z" fill="#E95C9D" stroke="black" stroke-width="0.551811" stroke-miterlimit="10"/>
<path d="M29.8032 34.9236L39.7706 29.006V29.0701L29.8032 34.9236Z" stroke="black" stroke-width="0.551811" stroke-miterlimit="10"/>
<path d="M39.8101 40.5995V40.6044L39.8446 52.3607L49.6047 46.6305L49.6442 46.6059L59.4092 40.8658V52.4149L40.5749 63.5005L39.8841 63.9098L29.9068 69.783L29.8723 58.1747L29.8378 46.4234L29.8032 34.9236L39.7706 29.0701L49.5356 23.33L59.4092 17.5308V29.1638L49.7083 34.8249L49.5702 34.9038L39.8101 40.5995Z" fill="#DDDE32" stroke="black" stroke-width="0.551811" stroke-miterlimit="10"/>
<path d="M39.8843 63.9098V63.9197L40.5751 63.5005" stroke="black" stroke-width="0.551811" stroke-miterlimit="10"/>
<path d="M59.4091 17.5308L49.5355 23.33L39.7705 29.0701V29.006L29.9758 23.2709L39.6915 17.5703L49.5898 11.7661L59.4091 17.5308Z" fill="#F9EC62" stroke="black" stroke-width="0.551811" stroke-miterlimit="10"/>
<path d="M29.976 23.2709L20.1271 17.5012L19.9248 6.00142L29.8329 11.8006L29.976 23.2709Z" fill="#D82B83" stroke="black" stroke-width="0.551811" stroke-miterlimit="10"/>
<path d="M39.7458 5.98167L39.6916 17.5703L29.9759 23.2709L29.8328 11.8006L39.7458 5.98167Z" fill="#EA4991" stroke="black" stroke-width="0.551811" stroke-miterlimit="10"/>
<path d="M49.6392 11.7365L49.5898 11.7661" stroke="black" stroke-width="0.551811" stroke-miterlimit="10"/>
<path d="M29.9069 69.783L10.2436 58.2388L10.1153 58.1648L0.241699 52.3656V17.5012L10.1646 23.3498L19.979 29.1342L29.8033 34.9236L29.8378 46.4234L29.7441 46.4776L19.9248 40.7031L10.1498 34.9532L10.1301 46.5023V46.6059L19.9248 52.3459L29.8724 58.1747L29.9069 69.783Z" fill="#76CBE9" stroke="black" stroke-width="0.551811" stroke-miterlimit="10"/>
<path d="M59.4092 40.8658L49.6442 46.6058L49.6047 46.5812V46.6305L39.8446 52.3607L39.8101 40.6044V40.5995L49.5702 34.9038L49.7083 34.8249L59.4092 40.8658Z" fill="#C0CC16" stroke="black" stroke-width="0.551811" stroke-miterlimit="10"/>
<path d="M19.984 40.7721L19.9248 40.8066" stroke="black" stroke-width="0.551811" stroke-miterlimit="10"/>
<path d="M10.13 46.5023L10.1152 46.5121" stroke="black" stroke-width="0.551811" stroke-miterlimit="10"/>
<path opacity="0.5" d="M39.7066 29.006L29.8379 34.8052L19.9692 29.0109V29.006L29.8379 23.2117L39.7066 29.006Z" fill="#F9EC62" stroke="black" stroke-width="0.551811" stroke-miterlimit="10"/>
<path opacity="0.5" d="M29.8379 34.8052V46.4234L19.9248 40.8066L19.9347 29.1293L29.8379 34.8052Z" fill="#F9EC62" stroke="black" stroke-width="0.551811" stroke-miterlimit="10"/>
<path opacity="0.5" d="M29.8724 58.0761L29.907 69.783L19.9939 63.9591L19.9248 52.3459L29.8724 58.0761Z" fill="#F9EC62" stroke="black" stroke-width="0.551811" stroke-miterlimit="10"/>
</g>

</symbol><symbol id="main" viewBox="0 0 25 25">
<path d="M12.744 1.23257C6.38696 1.23257 1.23242 6.38711 1.23242 12.7442C1.23242 19.1013 6.38696 24.2558 12.744 24.2558C19.1011 24.2558 24.2557 19.1013 24.2557 12.7442C24.2557 6.38711 19.1011 1.23257 12.744 1.23257ZM19.3221 7.75155L18.2737 8.75624C18.1812 8.82562 18.1376 8.93868 18.1555 9.04917V16.4418C18.1376 16.5549 18.1812 16.6679 18.2737 16.7347L19.3016 17.7394V17.963H14.1419V17.7497L15.2031 16.7193C15.3085 16.614 15.3085 16.5831 15.3085 16.4264V10.4444L12.3535 17.9373H11.9552L8.51712 10.4444V15.4679C8.48629 15.6786 8.5608 15.8919 8.70984 16.0435L10.0923 17.7163V17.9398H6.16598V17.7163L7.5484 16.0435C7.62123 15.9683 7.67544 15.877 7.70667 15.7771C7.73791 15.6771 7.7453 15.5713 7.72827 15.4679V9.66073C7.74625 9.49885 7.68458 9.3421 7.56125 9.23161L6.333 7.75155V7.52799H10.1488L13.0935 13.9904L15.6862 7.53313H19.3221V7.75155Z" fill="black" stroke="#5DE0FD" stroke-width="0.511628"/>
</symbol><symbol id="rd" viewBox="0 0 25 25">
<path d="M11.3051 13.7637C11.3051 13.1075 10.764 12.5665 10.1079 12.5665C9.45169 12.5665 8.91064 13.1075 8.91064 13.7637C8.91064 14.0812 9.03678 14.3857 9.2613 14.6102C9.48582 14.8348 9.79033 14.9609 10.1079 14.9609C10.4254 14.9609 10.7299 14.8348 10.9544 14.6102C11.1789 14.3857 11.3051 14.0812 11.3051 13.7637ZM15.1499 16.4919C14.6319 17.01 13.5268 17.1941 12.744 17.1941C11.9612 17.1941 10.8561 17.01 10.3381 16.4919C10.3101 16.462 10.2762 16.4381 10.2386 16.4217C10.201 16.4054 10.1604 16.3969 10.1194 16.3969C10.0783 16.3969 10.0378 16.4054 10.0001 16.4217C9.96251 16.4381 9.92865 16.462 9.90064 16.4919C9.87067 16.5199 9.84677 16.5538 9.83043 16.5914C9.81409 16.629 9.80565 16.6696 9.80565 16.7107C9.80565 16.7517 9.81409 16.7923 9.83043 16.8299C9.84677 16.8675 9.87067 16.9014 9.90064 16.9294C10.718 17.7467 12.2836 17.8158 12.744 17.8158C13.2045 17.8158 14.7701 17.7467 15.5874 16.9294C15.6174 16.9014 15.6413 16.8675 15.6576 16.8299C15.6739 16.7923 15.6824 16.7517 15.6824 16.7107C15.6824 16.6696 15.6739 16.629 15.6576 16.5914C15.6413 16.5538 15.6174 16.5199 15.5874 16.4919C15.4723 16.3768 15.2766 16.3768 15.1499 16.4919ZM15.3802 12.5665C14.724 12.5665 14.183 13.1075 14.183 13.7637C14.183 14.4198 14.724 14.9609 15.3802 14.9609C16.0363 14.9609 16.5774 14.4198 16.5774 13.7637C16.5774 13.1075 16.0479 12.5665 15.3802 12.5665Z" fill="black" stroke="#5DE0FD" stroke-width="0.511628"/>
<path d="M12.744 1.05484C6.38963 1.05484 1.23242 6.21205 1.23242 12.5665C1.23242 18.9209 6.38963 24.0781 12.744 24.0781C19.0985 24.0781 24.2557 18.9209 24.2557 12.5665C24.2557 6.21205 19.0985 1.05484 12.744 1.05484ZM19.4208 14.0975C19.4438 14.2587 19.4553 14.4313 19.4553 14.604C19.4553 17.1826 16.4508 19.2777 12.744 19.2777C9.0373 19.2777 6.03277 17.1826 6.03277 14.604C6.03277 14.4313 6.04428 14.2587 6.0673 14.0975C5.48021 13.8327 5.0773 13.2457 5.0773 12.5665C5.0756 12.2364 5.17147 11.9131 5.35288 11.6373C5.5343 11.3615 5.79316 11.1455 6.09695 11.0164C6.40075 10.8872 6.73593 10.8507 7.0604 10.9115C7.38487 10.9722 7.68416 11.1275 7.92068 11.3577C9.08335 10.5174 10.695 9.98786 12.4793 9.9303L13.3311 5.91275C13.3427 5.83216 13.3887 5.76309 13.4578 5.72856C13.5268 5.68251 13.6074 5.671 13.688 5.68251L16.4738 6.28112C16.5683 6.08954 16.7123 5.92673 16.8909 5.80958C17.0695 5.69242 17.2762 5.62519 17.4896 5.61485C17.703 5.60451 17.9152 5.65145 18.1043 5.75079C18.2934 5.85013 18.4525 5.99825 18.5651 6.1798C18.6776 6.36135 18.7395 6.5697 18.7444 6.78326C18.7493 6.99681 18.697 7.20778 18.5929 7.39429C18.4887 7.5808 18.3366 7.73604 18.1522 7.84393C17.9679 7.95182 17.758 8.00842 17.5444 8.00786C16.8997 8.00786 16.3817 7.50135 16.3472 6.86821L13.8492 6.33868L13.0894 9.9303C14.8507 9.98786 16.4278 10.5289 17.5789 11.3577C17.7554 11.1892 17.9666 11.0613 18.1976 10.9829C18.4287 10.9045 18.6741 10.8776 18.9167 10.904C19.1593 10.9303 19.3932 11.0094 19.602 11.1356C19.8108 11.2618 19.9896 11.4321 20.1257 11.6346C20.2618 11.8371 20.3521 12.0669 20.3901 12.308C20.4282 12.549 20.4131 12.7954 20.346 13.03C20.2788 13.2646 20.1612 13.4817 20.0014 13.6661C19.8416 13.8504 19.6434 13.9977 19.4208 14.0975Z" fill="black" stroke="#5DE0FD" stroke-width="0.511628"/>
</symbol><symbol id="social-youtube" viewBox="0 0 20 20">
<path d="M17.8 6.8C17.6 5.5 17 4.6 15.6 4.4C13.4 4 10 4 10 4C10 4 6.6 4 4.4 4.4C3 4.6 2.3 5.5 2.2 6.8C2 8.1 2 10 2 10C2 10 2 11.9 2.2 13.2C2.4 14.5 3 15.4 4.4 15.6C6.6 16 10 16 10 16C10 16 13.4 16 15.6 15.6C17 15.3 17.6 14.5 17.8 13.2C18 11.9 18 10 18 10C18 10 18 8.1 17.8 6.8ZM8 13V7L13 10L8 13Z" fill="currentColor"/>
</symbol><symbol id="tw" viewBox="0 0 25 25">
<path d="M12.7443 1.23257C6.3872 1.23257 1.23267 6.38711 1.23267 12.7442C1.23267 19.1013 6.3872 24.2558 12.7443 24.2558C19.1014 24.2558 24.2559 19.1013 24.2559 12.7442C24.2559 6.38711 19.1014 1.23257 12.7443 1.23257ZM18.2766 9.90998C18.2843 10.0307 18.2843 10.1567 18.2843 10.28C18.2843 14.0521 15.4115 18.3972 10.1619 18.3972C8.54306 18.3972 7.04244 17.927 5.77822 17.1176C6.00948 17.1433 6.23046 17.1536 6.46686 17.1536C7.80303 17.1536 9.03128 16.7013 10.0103 15.9356C8.75634 15.9099 7.70282 15.0876 7.34308 13.957C7.78247 14.0213 8.17818 14.0213 8.63043 13.9056C7.98476 13.7745 7.40443 13.4238 6.98801 12.9132C6.57159 12.4027 6.34477 11.7637 6.34609 11.1048V11.0688C6.72381 11.2821 7.16835 11.4132 7.63344 11.4312C7.24246 11.1706 6.92182 10.8176 6.69995 10.4034C6.47807 9.98924 6.36182 9.52673 6.36151 9.05688C6.36151 8.52498 6.50026 8.03934 6.74951 7.61793C7.46617 8.50015 8.36045 9.2217 9.37422 9.73567C10.388 10.2496 11.4986 10.5445 12.6338 10.6012C12.2304 8.66117 13.6796 7.09117 15.4218 7.09117C16.244 7.09117 16.9841 7.43549 17.5057 7.99052C18.1506 7.86975 18.7673 7.62821 19.3172 7.30444C19.104 7.96482 18.6568 8.52241 18.0633 8.87444C18.6389 8.81277 19.1939 8.65346 19.7078 8.42991C19.3198 9.00035 18.8341 9.50656 18.2766 9.90998Z" fill="black" stroke="#5DE0FD" stroke-width="0.511628"/>
</symbol><symbol id="youtube" viewBox="0 0 34 25">
<path d="M17.1044 1.23257H17.2865C18.9688 1.23872 27.4925 1.30018 29.7907 1.91883C30.4855 2.10764 31.1186 2.47566 31.6268 2.98612C32.1349 3.49658 32.5004 4.1316 32.6865 4.82772C32.8932 5.60615 33.0385 6.63655 33.1368 7.69973L33.1572 7.91278L33.2022 8.44539L33.2186 8.65844C33.3516 10.5308 33.368 12.2843 33.3701 12.6674V12.821C33.368 13.2184 33.3496 15.0908 33.2022 17.041L33.1859 17.2561L33.1675 17.4691C33.0651 18.6408 32.9137 19.8044 32.6865 20.6607C32.5009 21.3571 32.1357 21.9924 31.6274 22.5029C31.1192 23.0135 30.4858 23.3813 29.7907 23.5696C27.4168 24.2087 18.3937 24.2538 17.1433 24.2558H16.8527C16.2203 24.2558 13.6049 24.2435 10.8625 24.1493L10.5146 24.137L10.3366 24.1288L9.98662 24.1145L9.63667 24.1001C7.36504 23.9998 5.20188 23.8379 4.20523 23.5675C3.51042 23.3795 2.87718 23.0119 2.36895 22.5018C1.86071 21.9916 1.49534 21.3567 1.30942 20.6607C1.08226 19.8065 0.930813 18.6408 0.828488 17.4691L0.812116 17.254L0.795744 17.041C0.694743 15.6529 0.638776 14.2619 0.62793 12.8702L0.62793 12.6182C0.632023 12.1778 0.648395 10.6557 0.758906 8.97596L0.773232 8.76496L0.779372 8.65844L0.795744 8.44539L0.840767 7.91278L0.861232 7.69973C0.959464 6.63655 1.10477 5.6041 1.31146 4.82772C1.49707 4.13132 1.86231 3.496 2.37056 2.98545C2.87881 2.4749 3.51222 2.10707 4.20728 1.91883C5.20393 1.65252 7.36709 1.48864 9.63872 1.38621L9.98662 1.37187L10.3386 1.35958L10.5146 1.35344L10.8646 1.3391C12.8123 1.27636 14.7607 1.24153 16.7094 1.23462H17.1044V1.23257ZM13.7256 7.8083V17.678L22.2329 12.7452L13.7256 7.8083Z" fill="black" stroke="#5DE0FD" stroke-width="0.511628"/>
</symbol></svg>